#N canvas 90 22 1038 704 10;
#X text 288 5 This is the control window;
#N canvas 419 22 540 640 core_components 0;
#N canvas 130 100 554 582 delay 0;
#X obj 408 49 inlet;
#X obj 74 39 inlet~;
#X obj 253 38 inlet~;
#X obj 75 517 outlet~;
#X obj 151 517 outlet~;
#X obj 70 477 freeverb~;
#X msg 403 332 freeze 0;
#X msg 404 384 freeze 1;
#X obj 146 477 freeverb~;
#X obj 122 217 loadbang;
#X obj 366 257 spigot;
#X floatatom 431 130 5 0 0 0 - - -;
#X obj 417 257 spigot;
#X floatatom 471 245 5 0 0 0 - - -;
#X floatatom 342 221 5 0 0 0 - - -;
#X obj 453 194 < 40;
#X obj 405 297 delay 3000;
#X obj 402 194 >= 130;
#X obj 20 88 delwrite~ delay_left 2500;
#X obj 18 128 delread~ delay_left 2500;
#X obj 253 89 delwrite~ delay_right 2750;
#X obj 256 129 delread~ delay_right 2750;
#X msg 137 316 roomsize 0.8;
#X msg 93 279 width 0.6;
#X connect 0 0 11 0;
#X connect 0 0 15 0;
#X connect 0 0 17 0;
#X connect 1 0 18 0;
#X connect 2 0 20 0;
#X connect 5 0 3 0;
#X connect 6 0 5 0;
#X connect 6 0 8 0;
#X connect 7 0 5 0;
#X connect 7 0 8 0;
#X connect 8 1 4 0;
#X connect 9 0 23 0;
#X connect 9 0 22 0;
#X connect 10 0 7 0;
#X connect 12 0 16 0;
#X connect 15 0 12 1;
#X connect 15 0 12 0;
#X connect 15 0 13 0;
#X connect 16 0 6 0;
#X connect 17 0 10 1;
#X connect 17 0 10 0;
#X connect 17 0 14 0;
#X connect 19 0 5 0;
#X connect 21 0 8 1;
#X connect 22 0 5 0;
#X connect 22 0 8 0;
#X connect 23 0 5 0;
#X connect 23 0 8 0;
#X restore 92 330 pd delay;
#N canvas 0 139 1276 496 synths 0;
#X obj 61 19 inlet;
#X obj 115 19 inlet;
#X obj 165 20 inlet;
#X obj 215 18 inlet;
#X obj 268 15 inlet;
#X obj 21 299 tabwrite~ oscillator;
#N canvas 0 22 450 300 (subpatch) 0;
#X array oscillator 100 float 5;
#A 0 0 0 0 0 0 0 0 0 0 0 0 0 0 0 0 0 0 0 0 0 0 0 0 0 0 0 0 0 0 0 0
0 0 0 0 0 0 0 0 0 0 0 0 0 0 0 0 0 0 0 0 0 0 0 0 0 0 0 0 0 0 0 0 0 0
0 0 0 0 0 0 0 0 0 0 0 0 0 0 0 0 0 0 0 0 0 0 0 0 0 0 0 0 0 0 0 0 0 0
0;
#X coords 0 1 99 -1 200 140 1;
#X restore 20 330 graph;
#X obj 27 110 tgl 15 0 empty r_START Switches_oscillators_on 17 7 0
10 -262144 -1 -1 0 1;
#X obj 259 334 line~;
#X msg 285 305 0 100;
#X msg 268 284 0.1 100;
#X obj 1119 98 vsl 15 128 0 1 0 1 empty r_ampline1 Master_Amplitude
0 0 0 10 -262144 -3 -66577 6350 0;
#X obj 267 403 outlet~;
#X obj 209 43 mtof;
#X obj 251 39 mtof;
#X floatatom 198 110 5 0 0 0 - - -;
#X obj 199 151 clip 0 1;
#X floatatom 196 180 5 0 0 0 - - -;
#X obj 306 36 mtof;
#X obj 346 37 mtof;
#X obj 391 38 mtof;
#X obj 324 16 inlet;
#X obj 436 39 mtof;
#X obj 265 140 osc~;
#X obj 306 144 phasor~;
#X obj 397 137 phasor~;
#X obj 482 133 noise~;
#X obj 529 133 pink~;
#X obj 567 133 cos~;
#X obj 398 332 line~;
#X msg 424 303 0 100;
#X msg 407 282 0.1 100;
#X obj 352 316 *~;
#X obj 873 282 vsl 15 128 0 100 0 0 empty r_oscline1 osc1 0 -9 0 10
-262144 -1 -1 0 1;
#X obj 413 373 / 100;
#X obj 484 333 line~;
#X msg 510 304 0 100;
#X msg 493 283 0.1 100;
#X obj 908 281 vsl 15 128 0 100 0 0 empty r_sawline1 saw1 0 -9 0 10
-262144 -1 -1 0 1;
#X obj 499 374 / 100;
#X obj 574 334 line~;
#X msg 600 305 0 100;
#X msg 583 284 0.1 100;
#X obj 945 282 vsl 15 128 0 100 0 0 empty r_oscline2 osc2 0 -9 0 10
-262144 -1 -1 0 1;
#X obj 589 375 / 100;
#X obj 661 334 line~;
#X msg 687 305 0 100;
#X msg 670 284 0.1 100;
#X obj 982 282 vsl 15 128 0 100 0 0 empty r_sawline2 saw2 0 -9 0 10
-262144 -1 -1 0 1;
#X obj 676 375 / 100;
#X obj 461 375 *~;
#X obj 548 377 *~;
#X obj 630 375 *~;
#X obj 747 333 line~;
#X msg 773 304 0 100;
#X msg 756 283 0.1 100;
#X obj 1018 282 vsl 15 128 0 100 0 0 empty r_cosline1 cos1 0 -9 0 10
-262144 -1 -1 0 1;
#X obj 762 374 / 100;
#X obj 716 374 *~;
#X obj 699 135 line~;
#X msg 725 106 0 100;
#X msg 708 85 0.1 100;
#X obj 1057 284 vsl 15 128 0 100 0 0 empty r_noiseline1 noise1 0 -9
0 10 -262144 -1 -1 0 1;
#X obj 714 176 / 100;
#X obj 668 176 *~;
#X obj 851 132 line~;
#X msg 877 103 0 100;
#X msg 860 82 0.1 100;
#X obj 1096 283 vsl 15 128 0 100 0 0 empty r_pinkline1 pink1 0 -9 0
10 -262144 -1 -1 0 1;
#X obj 866 173 / 100;
#X obj 820 173 *~;
#X obj 998 127 line~;
#X msg 1024 98 0 100;
#X msg 1007 77 0.1 100;
#X obj 1135 283 vsl 15 128 0 100 0 0 empty r_cosline2 cosine2 0 -9
0 10 -262144 -1 -1 0 1;
#X obj 1013 168 / 100;
#X obj 967 168 *~;
#X obj 359 134 osc~;
#X obj 448 133 cos~;
#X obj 198 86 / 10000;
#X obj 368 13 inlet~;
#X obj 56 216 *~;
#X obj 27 190 metro 1000;
#X text 57 3 tonic;
#X text 111 4 amp;
#X text 160 5 harm1;
#X text 215 1 harm2;
#X text 263 -2 harm3;
#X text 318 0 harm4;
#X text 366 -4 audio;
#N canvas 354 402 450 300 matrix1 0;
#X obj 21 -9 inlet;
#X obj 95 -10 inlet;
#X obj 176 -9 inlet;
#X obj 251 -9 inlet;
#X obj 326 -8 inlet;
#X obj 20 238 outlet;
#X obj 69 237 outlet;
#X obj 120 237 outlet;
#X obj 171 237 outlet;
#X obj 220 238 outlet;
#X obj 270 239 outlet;
#X obj 328 236 outlet;
#X obj 387 237 outlet;
#N canvas 1086 555 364 264 route... 0;
#X obj 46 31 inlet;
#X obj 15 194 outlet;
#X obj 55 194 outlet;
#X obj 96 194 outlet;
#X obj 137 194 outlet;
#X obj 178 194 outlet;
#X obj 218 194 outlet;
#X obj 259 194 outlet;
#X obj 300 194 outlet;
#X obj 60 80 tgl 15 0 empty tonosc1 empty 17 7 0 10 -262144 -1 -1 0
1;
#X obj 90 80 tgl 15 0 empty tonsaw1 empty 17 7 0 10 -262144 -1 -1 0
1;
#X obj 119 80 tgl 15 0 empty tonosc2 empty 17 7 0 10 -262144 -1 -1
0 1;
#X obj 146 80 tgl 15 0 empty tonsaw2 empty 17 7 0 10 -262144 -1 -1
0 1;
#X obj 176 80 tgl 15 0 empty toncos1 empty 17 7 0 10 -262144 -1 -1
0 1;
#X obj 207 81 tgl 15 0 empty tonbp1 empty 17 7 0 10 -262144 -1 -1 0
1;
#X obj 233 80 tgl 15 0 empty tonbp2 empty 17 7 0 10 -262144 -1 -1 0
1;
#X obj 262 80 tgl 15 0 empty toncos2 empty 17 7 0 10 -262144 -1 -1
0 1;
#X obj 8 116 spigot;
#X obj 50 115 spigot;
#X obj 91 115 spigot;
#X obj 130 116 spigot;
#X obj 169 116 spigot;
#X obj 210 117 spigot;
#X obj 252 117 spigot;
#X obj 295 116 spigot;
#X connect 0 0 17 0;
#X connect 0 0 18 0;
#X connect 0 0 19 0;
#X connect 0 0 20 0;
#X connect 0 0 21 0;
#X connect 0 0 22 0;
#X connect 0 0 23 0;
#X connect 0 0 24 0;
#X connect 9 0 17 1;
#X connect 10 0 18 1;
#X connect 11 0 19 1;
#X connect 12 0 20 1;
#X connect 13 0 21 1;
#X connect 14 0 22 1;
#X connect 15 0 23 1;
#X connect 16 0 24 1;
#X connect 17 0 1 0;
#X connect 18 0 2 0;
#X connect 19 0 3 0;
#X connect 20 0 4 0;
#X connect 21 0 5 0;
#X connect 22 0 6 0;
#X connect 23 0 7 0;
#X connect 24 0 8 0;
#X restore 22 67 pd route...;
#N canvas 1069 405 364 264 route... 0;
#X obj 46 31 inlet;
#X obj 15 194 outlet;
#X obj 55 194 outlet;
#X obj 96 194 outlet;
#X obj 137 194 outlet;
#X obj 178 194 outlet;
#X obj 218 194 outlet;
#X obj 259 194 outlet;
#X obj 300 194 outlet;
#X obj 60 80 tgl 15 0 empty h1osc1 empty 17 7 0 10 -262144 -1 -1 0
1;
#X obj 90 80 tgl 15 0 empty h1saw1 empty 17 7 0 10 -262144 -1 -1 0
1;
#X obj 119 80 tgl 15 0 empty h1osc2 empty 17 7 0 10 -262144 -1 -1 0
1;
#X obj 146 80 tgl 15 0 empty h1saw2 empty 17 7 0 10 -262144 -1 -1 0
1;
#X obj 176 80 tgl 15 0 empty h1cos1 empty 17 7 0 10 -262144 -1 -1 0
1;
#X obj 205 80 tgl 15 0 empty h1bp1 empty 17 7 0 10 -262144 -1 -1 0
1;
#X obj 233 80 tgl 15 0 empty h1bp2 empty 17 7 0 10 -262144 -1 -1 0
1;
#X obj 262 80 tgl 15 0 empty h1cos2 empty 17 7 0 10 -262144 -1 -1 0
1;
#X obj 7 116 spigot;
#X obj 50 115 spigot;
#X obj 92 115 spigot;
#X obj 135 115 spigot;
#X obj 177 116 spigot;
#X obj 218 117 spigot;
#X obj 259 116 spigot;
#X obj 300 118 spigot;
#X floatatom 10 32 5 0 0 0 - - -;
#X connect 0 0 17 0;
#X connect 0 0 18 0;
#X connect 0 0 19 0;
#X connect 0 0 20 0;
#X connect 0 0 21 0;
#X connect 0 0 22 0;
#X connect 0 0 23 0;
#X connect 0 0 24 0;
#X connect 9 0 17 1;
#X connect 10 0 18 1;
#X connect 11 0 19 1;
#X connect 12 0 20 1;
#X connect 13 0 21 1;
#X connect 14 0 22 1;
#X connect 15 0 23 1;
#X connect 16 0 24 1;
#X connect 17 0 1 0;
#X connect 17 0 25 0;
#X connect 18 0 2 0;
#X connect 19 0 3 0;
#X connect 20 0 4 0;
#X connect 21 0 5 0;
#X connect 22 0 6 0;
#X connect 23 0 7 0;
#X connect 24 0 8 0;
#X restore 97 68 pd route...;
#N canvas 1116 367 364 264 route... 0;
#X obj 46 31 inlet;
#X obj 15 194 outlet;
#X obj 55 194 outlet;
#X obj 96 194 outlet;
#X obj 137 194 outlet;
#X obj 178 194 outlet;
#X obj 218 194 outlet;
#X obj 259 194 outlet;
#X obj 300 194 outlet;
#X obj 93 60 tgl 15 0 empty h2osc1 empty 17 7 0 10 -262144 -1 -1 0
1;
#X obj 123 60 tgl 15 0 empty h2saw1 empty 17 7 0 10 -262144 -1 -1 0
1;
#X obj 152 60 tgl 15 0 empty h2osc2 empty 17 7 0 10 -262144 -1 -1 0
1;
#X obj 179 60 tgl 15 0 empty h2saw2 empty 17 7 0 10 -262144 -1 -1 0
1;
#X obj 209 60 tgl 15 0 empty h2cos1 empty 17 7 0 10 -262144 -1 -1 0
1;
#X obj 238 60 tgl 15 0 empty h2bp1 empty 17 7 0 10 -262144 -1 -1 0
1;
#X obj 266 60 tgl 15 0 empty h2bp2 empty 17 7 0 10 -262144 -1 -1 0
1;
#X obj 295 60 tgl 15 0 empty h2cos2 empty 17 7 0 10 -262144 -1 -1 0
1;
#X obj 20 117 spigot;
#X obj 64 116 spigot;
#X obj 107 117 spigot;
#X obj 149 117 spigot;
#X obj 191 116 spigot;
#X obj 228 116 spigot;
#X obj 263 116 spigot;
#X obj 303 117 spigot;
#X connect 0 0 17 0;
#X connect 0 0 18 0;
#X connect 0 0 19 0;
#X connect 0 0 20 0;
#X connect 0 0 21 0;
#X connect 0 0 22 0;
#X connect 0 0 23 0;
#X connect 0 0 24 0;
#X connect 9 0 17 1;
#X connect 10 0 18 1;
#X connect 11 0 19 1;
#X connect 12 0 20 1;
#X connect 13 0 21 1;
#X connect 14 0 22 1;
#X connect 15 0 23 1;
#X connect 16 0 24 1;
#X connect 17 0 1 0;
#X connect 18 0 2 0;
#X connect 19 0 3 0;
#X connect 20 0 4 0;
#X connect 21 0 5 0;
#X connect 22 0 6 0;
#X connect 23 0 7 0;
#X connect 24 0 8 0;
#X restore 176 67 pd route...;
#N canvas 1086 555 364 264 route... 0;
#X obj 46 31 inlet;
#X obj 15 194 outlet;
#X obj 55 194 outlet;
#X obj 96 194 outlet;
#X obj 137 194 outlet;
#X obj 178 194 outlet;
#X obj 218 194 outlet;
#X obj 259 194 outlet;
#X obj 300 194 outlet;
#X obj 60 85 tgl 15 0 empty h3osc1 empty 17 7 0 10 -262144 -1 -1 0
1;
#X obj 90 85 tgl 15 0 empty h3saw1 empty 17 7 0 10 -262144 -1 -1 0
1;
#X obj 119 85 tgl 15 0 empty h3osc2 empty 17 7 0 10 -262144 -1 -1 0
1;
#X obj 146 85 tgl 15 0 empty h3saw2 empty 17 7 0 10 -262144 -1 -1 0
1;
#X obj 176 85 tgl 15 0 empty h3cos1 empty 17 7 0 10 -262144 -1 -1 0
1;
#X obj 205 85 tgl 15 0 empty h3bp1 empty 17 7 0 10 -262144 -1 -1 0
1;
#X obj 233 85 tgl 15 0 empty h3bp2 empty 17 7 0 10 -262144 -1 -1 0
1;
#X obj 262 85 tgl 15 0 empty h3cos2 empty 17 7 0 10 -262144 -1 -1 0
1;
#X obj 13 119 spigot;
#X obj 58 117 spigot;
#X obj 103 115 spigot;
#X obj 147 115 spigot;
#X obj 190 116 spigot;
#X obj 231 117 spigot;
#X obj 273 117 spigot;
#X obj 316 117 spigot;
#X connect 0 0 17 0;
#X connect 0 0 18 0;
#X connect 0 0 19 0;
#X connect 0 0 20 0;
#X connect 0 0 21 0;
#X connect 0 0 22 0;
#X connect 0 0 23 0;
#X connect 0 0 24 0;
#X connect 9 0 17 1;
#X connect 10 0 18 1;
#X connect 11 0 19 1;
#X connect 12 0 20 1;
#X connect 13 0 21 1;
#X connect 14 0 22 1;
#X connect 15 0 23 1;
#X connect 16 0 24 1;
#X connect 17 0 1 0;
#X connect 18 0 2 0;
#X connect 19 0 3 0;
#X connect 20 0 4 0;
#X connect 21 0 5 0;
#X connect 22 0 6 0;
#X connect 23 0 7 0;
#X connect 24 0 8 0;
#X restore 252 67 pd route...;
#N canvas 1106 406 364 264 route... 0;
#X obj 46 31 inlet;
#X obj 15 194 outlet;
#X obj 55 194 outlet;
#X obj 96 194 outlet;
#X obj 137 194 outlet;
#X obj 178 194 outlet;
#X obj 218 194 outlet;
#X obj 259 194 outlet;
#X obj 300 194 outlet;
#X obj 59 77 tgl 15 0 empty h4osc1 empty 17 7 0 10 -262144 -1 -1 0
1;
#X obj 89 77 tgl 15 0 empty h4saw1 empty 17 7 0 10 -262144 -1 -1 0
1;
#X obj 118 77 tgl 15 0 empty h4osc2 empty 17 7 0 10 -262144 -1 -1 0
1;
#X obj 145 77 tgl 15 0 empty h4saw2 empty 17 7 0 10 -262144 -1 -1 0
1;
#X obj 175 77 tgl 15 0 empty h4cos1 empty 17 7 0 10 -262144 -1 -1 0
1;
#X obj 204 77 tgl 15 0 empty h4bp1 empty 17 7 0 10 -262144 -1 -1 0
1;
#X obj 232 77 tgl 15 0 empty h4bp2 empty 17 7 0 10 -262144 -1 -1 0
1;
#X obj 261 77 tgl 15 0 empty h4cos2 empty 17 7 0 10 -262144 -1 -1 0
1;
#X obj 10 116 spigot;
#X obj 51 115 spigot;
#X obj 89 116 spigot;
#X obj 131 116 spigot;
#X obj 169 115 spigot;
#X obj 213 117 spigot;
#X obj 257 114 spigot;
#X obj 301 115 spigot;
#X connect 0 0 17 0;
#X connect 0 0 18 0;
#X connect 0 0 19 0;
#X connect 0 0 20 0;
#X connect 0 0 21 0;
#X connect 0 0 22 0;
#X connect 0 0 23 0;
#X connect 0 0 24 0;
#X connect 9 0 17 1;
#X connect 10 0 18 1;
#X connect 11 0 19 1;
#X connect 12 0 20 1;
#X connect 13 0 21 1;
#X connect 14 0 22 1;
#X connect 15 0 23 1;
#X connect 16 0 24 1;
#X connect 17 0 1 0;
#X connect 18 0 2 0;
#X connect 19 0 3 0;
#X connect 20 0 4 0;
#X connect 21 0 5 0;
#X connect 22 0 6 0;
#X connect 23 0 7 0;
#X connect 24 0 8 0;
#X restore 326 67 pd route...;
#X text 19 48 tonic;
#X text 100 47 harm1;
#X text 173 46 harm2;
#X text 249 48 harm3;
#X text 324 50 harm4;
#X connect 0 0 13 0;
#X connect 1 0 14 0;
#X connect 2 0 15 0;
#X connect 3 0 16 0;
#X connect 4 0 17 0;
#X connect 13 0 5 0;
#X connect 13 1 6 0;
#X connect 13 2 7 0;
#X connect 13 3 8 0;
#X connect 13 4 9 0;
#X connect 13 5 10 0;
#X connect 13 6 11 0;
#X connect 13 7 12 0;
#X connect 14 0 5 0;
#X connect 14 1 6 0;
#X connect 14 2 7 0;
#X connect 14 3 8 0;
#X connect 14 4 9 0;
#X connect 14 5 10 0;
#X connect 14 6 11 0;
#X connect 14 7 12 0;
#X connect 15 0 5 0;
#X connect 15 1 6 0;
#X connect 15 2 7 0;
#X connect 15 3 8 0;
#X connect 15 4 9 0;
#X connect 15 5 10 0;
#X connect 15 6 11 0;
#X connect 15 7 12 0;
#X connect 16 0 5 0;
#X connect 16 1 6 0;
#X connect 16 2 7 0;
#X connect 16 3 8 0;
#X connect 16 4 9 0;
#X connect 16 5 10 0;
#X connect 16 6 11 0;
#X connect 16 7 12 0;
#X connect 17 0 5 0;
#X connect 17 1 6 0;
#X connect 17 2 7 0;
#X connect 17 3 8 0;
#X connect 17 4 9 0;
#X connect 17 5 10 0;
#X connect 17 6 11 0;
#X connect 17 7 12 0;
#X restore 428 77 pd matrix1;
#X floatatom 482 28 5 0 0 0 - - -;
#X floatatom 492 38 5 0 0 0 - - -;
#X floatatom 502 48 5 0 0 0 - - -;
#X floatatom 512 58 5 0 0 0 - - -;
#X floatatom 522 68 5 0 0 0 - - -;
#X floatatom 532 78 5 0 0 0 - - -;
#X floatatom 542 88 5 0 0 0 - - -;
#X obj 441 164 vcf~;
#X obj 478 162 vcf~;
#X obj 338 430 s~ synthscope;
#X obj 146 207 *~ 0.175;
#X obj 265 182 *~;
#X obj 306 183 *~;
#X obj 355 184 *~;
#X obj 396 181 *~;
#X connect 0 0 13 0;
#X connect 1 0 14 0;
#X connect 2 0 18 0;
#X connect 3 0 19 0;
#X connect 4 0 20 0;
#X connect 7 0 82 0;
#X connect 7 0 102 1;
#X connect 7 0 103 1;
#X connect 7 0 104 1;
#X connect 7 0 105 1;
#X connect 8 0 81 1;
#X connect 9 0 8 0;
#X connect 10 0 8 0;
#X connect 11 0 8 0;
#X connect 13 0 90 0;
#X connect 14 0 79 0;
#X connect 15 0 16 0;
#X connect 16 0 17 0;
#X connect 18 0 90 1;
#X connect 19 0 90 2;
#X connect 20 0 90 3;
#X connect 21 0 22 0;
#X connect 22 0 90 4;
#X connect 23 0 102 0;
#X connect 24 0 103 0;
#X connect 25 0 105 0;
#X connect 26 0 98 0;
#X connect 27 0 99 0;
#X connect 28 0 76 0;
#X connect 29 0 32 1;
#X connect 30 0 29 0;
#X connect 31 0 29 0;
#X connect 32 0 101 0;
#X connect 33 0 34 0;
#X connect 34 0 29 0;
#X connect 35 0 50 1;
#X connect 36 0 35 0;
#X connect 37 0 35 0;
#X connect 38 0 39 0;
#X connect 39 0 35 0;
#X connect 40 0 51 1;
#X connect 41 0 40 0;
#X connect 42 0 40 0;
#X connect 43 0 44 0;
#X connect 44 0 40 0;
#X connect 45 0 52 1;
#X connect 46 0 45 0;
#X connect 47 0 45 0;
#X connect 48 0 49 0;
#X connect 49 0 45 0;
#X connect 50 0 101 0;
#X connect 51 0 101 0;
#X connect 52 0 101 0;
#X connect 53 0 58 1;
#X connect 54 0 53 0;
#X connect 55 0 53 0;
#X connect 56 0 57 0;
#X connect 57 0 53 0;
#X connect 58 0 101 0;
#X connect 59 0 64 1;
#X connect 60 0 59 0;
#X connect 61 0 59 0;
#X connect 62 0 63 0;
#X connect 63 0 59 0;
#X connect 64 0 101 0;
#X connect 65 0 70 1;
#X connect 66 0 65 0;
#X connect 67 0 65 0;
#X connect 68 0 69 0;
#X connect 69 0 65 0;
#X connect 70 0 101 0;
#X connect 71 0 76 1;
#X connect 72 0 71 0;
#X connect 73 0 71 0;
#X connect 74 0 75 0;
#X connect 75 0 71 0;
#X connect 76 0 101 0;
#X connect 77 0 104 0;
#X connect 78 0 58 0;
#X connect 79 0 15 0;
#X connect 80 0 81 0;
#X connect 81 0 5 0;
#X connect 81 0 12 0;
#X connect 81 0 100 0;
#X connect 82 0 5 0;
#X connect 90 0 91 0;
#X connect 90 0 23 0;
#X connect 90 1 92 0;
#X connect 90 1 24 0;
#X connect 90 2 93 0;
#X connect 90 2 77 0;
#X connect 90 3 94 0;
#X connect 90 3 25 0;
#X connect 90 4 95 0;
#X connect 90 4 78 0;
#X connect 90 5 98 1;
#X connect 90 6 96 0;
#X connect 90 6 99 1;
#X connect 90 7 97 0;
#X connect 90 7 28 0;
#X connect 98 0 64 0;
#X connect 99 0 70 0;
#X connect 101 0 81 1;
#X connect 102 0 32 0;
#X connect 103 0 50 0;
#X connect 104 0 51 0;
#X connect 105 0 52 0;
#X restore 258 333 pd synths;
#X obj 134 229 unpack;
#X floatatom 168 266 5 0 0 2 amplitude - -;
#X floatatom 117 269 5 0 0 2 pitch - -;
#X obj 213 107 tgl 15 0 r_START s_synthbegin begin_synths 17 7 0 10
-262144 -1 -1 0 1;
#X obj 95 195 fiddle~ 1024 1 5 5;
#X obj 224 222 route 1 2 3 4;
#X obj 228 258 unpack;
#X obj 276 258 unpack;
#X obj 319 261 unpack;
#X obj 366 261 unpack;
#X floatatom 240 287 5 0 0 0 - - -;
#X floatatom 278 286 5 0 0 0 - - -;
#X floatatom 321 292 5 0 0 0 - - -;
#X floatatom 365 292 5 0 0 0 - - -;
#X obj 186 359 freeverb~;
#X obj 181 166 delay 10000;
#X obj 189 66 bng 30 250 50 0 s_synthbegin begin BEGIN -5 -17 0 20
-162280 -86277 -258113;
#X obj 146 575 dac~ 1;
#X obj 217 575 dac~ 2;
#N canvas 47 336 439 594 transposeL 0;
#X obj 92 368 *~;
#X obj 215 305 line~;
#X obj 215 279 pack 0 200;
#X obj 247 96 r window;
#X obj 29 153 exp;
#X floatatom 29 179 6 0 0 0 - - -;
#X obj 29 269 /;
#X obj 156 199 * 0.001;
#X obj 324 375 line~;
#X obj 324 350 pack 0 200;
#X obj 92 394 +~;
#X obj 29 420 cos~;
#X obj 29 447 *~;
#X obj 29 476 +~;
#X obj 116 327 wrap~;
#X obj 261 370 *~;
#X obj 261 403 +~;
#X obj 198 430 cos~;
#X obj 198 457 *~;
#X obj 156 226 t b f;
#X floatatom 29 295 6 0 0 0 - - -;
#X obj 116 300 +~ 0.5;
#X obj 29 368 -~ 0.5;
#X obj 29 394 *~ 0.5;
#X obj 198 369 -~ 0.5;
#X obj 198 402 *~ 0.5;
#X obj 29 206 - 1;
#X obj 29 127 * 0.05776;
#X obj 29 232 * -1;
#X text 63 96 <-- transposition;
#X text 106 109 (halftones);
#X text 92 173 speed;
#X text 91 187 change;
#X text 291 121 <--window (msec);
#X text 64 262 tape head;
#X obj 29 326 phasor~;
#X obj 324 326 max 1.5;
#X text 327 232 delay;
#X text 324 250 (msec);
#X obj 247 149 max 1;
#X text 65 275 rotation freq;
#X msg 246 123 100;
#X obj 92 420 vd~ delay_left;
#X obj 46 515 outlet~;
#X obj 127 518 outlet~;
#X obj 261 432 vd~ delay_left;
#X obj 29 71 r transposeL;
#X floatatom 29 100 5 0 0 0 - - -;
#X obj 324 273 r delayL;
#X floatatom 323 302 5 0 0 0 - - -;
#X connect 0 0 10 0;
#X connect 1 0 0 1;
#X connect 1 0 15 1;
#X connect 2 0 1 0;
#X connect 3 0 41 0;
#X connect 4 0 5 0;
#X connect 5 0 26 0;
#X connect 6 0 20 0;
#X connect 7 0 19 0;
#X connect 8 0 10 1;
#X connect 8 0 16 1;
#X connect 9 0 8 0;
#X connect 10 0 42 0;
#X connect 11 0 12 0;
#X connect 12 0 13 0;
#X connect 13 0 43 0;
#X connect 13 0 44 0;
#X connect 14 0 15 0;
#X connect 14 0 24 0;
#X connect 15 0 16 0;
#X connect 16 0 45 0;
#X connect 17 0 18 0;
#X connect 18 0 13 1;
#X connect 19 0 6 0;
#X connect 19 1 6 1;
#X connect 20 0 35 0;
#X connect 21 0 14 0;
#X connect 22 0 23 0;
#X connect 23 0 11 0;
#X connect 24 0 25 0;
#X connect 25 0 17 0;
#X connect 26 0 28 0;
#X connect 27 0 4 0;
#X connect 28 0 6 0;
#X connect 35 0 0 0;
#X connect 35 0 22 0;
#X connect 35 0 21 0;
#X connect 36 0 9 0;
#X connect 39 0 7 0;
#X connect 39 0 2 0;
#X connect 41 0 39 0;
#X connect 42 0 12 1;
#X connect 45 0 18 1;
#X connect 46 0 47 0;
#X connect 47 0 27 0;
#X connect 48 0 49 0;
#X connect 49 0 36 0;
#X restore 5 396 pd transposeL;
#N canvas 1027 331 428 582 transposeR 0;
#X obj 92 368 *~;
#X obj 215 305 line~;
#X obj 215 279 pack 0 200;
#X obj 247 96 r window;
#X obj 29 153 exp;
#X floatatom 29 179 6 0 0 0 - - -;
#X obj 29 269 /;
#X obj 156 199 * 0.001;
#X obj 324 375 line~;
#X obj 324 350 pack 0 200;
#X obj 92 394 +~;
#X obj 29 420 cos~;
#X obj 29 447 *~;
#X obj 29 476 +~;
#X obj 116 327 wrap~;
#X obj 261 370 *~;
#X obj 261 403 +~;
#X obj 198 430 cos~;
#X obj 198 457 *~;
#X obj 156 226 t b f;
#X floatatom 29 295 6 0 0 0 - - -;
#X obj 116 300 +~ 0.5;
#X obj 29 368 -~ 0.5;
#X obj 29 394 *~ 0.5;
#X obj 198 369 -~ 0.5;
#X obj 198 402 *~ 0.5;
#X obj 29 206 - 1;
#X obj 29 127 * 0.05776;
#X obj 29 232 * -1;
#X text 63 96 <-- transposition;
#X text 106 109 (halftones);
#X text 92 173 speed;
#X text 91 187 change;
#X text 291 121 <--window (msec);
#X text 64 262 tape head;
#X obj 29 326 phasor~;
#X obj 324 326 max 1.5;
#X text 327 232 delay;
#X text 324 250 (msec);
#X obj 247 149 max 1;
#X text 65 275 rotation freq;
#X obj 261 432 vd~ delay_right;
#X obj 46 515 outlet~;
#X obj 127 518 outlet~;
#X obj 92 420 vd~ delay_right;
#X msg 246 123 500;
#X obj 29 71 r transposeR;
#X floatatom 27 100 5 0 0 0 - - -;
#X obj 324 273 r delayR;
#X floatatom 324 302 5 0 0 0 - - -;
#X connect 0 0 10 0;
#X connect 1 0 0 1;
#X connect 1 0 15 1;
#X connect 2 0 1 0;
#X connect 3 0 45 0;
#X connect 4 0 5 0;
#X connect 5 0 26 0;
#X connect 6 0 20 0;
#X connect 7 0 19 0;
#X connect 8 0 10 1;
#X connect 8 0 16 1;
#X connect 9 0 8 0;
#X connect 10 0 44 0;
#X connect 11 0 12 0;
#X connect 12 0 13 0;
#X connect 13 0 42 0;
#X connect 13 0 43 0;
#X connect 14 0 15 0;
#X connect 14 0 24 0;
#X connect 15 0 16 0;
#X connect 16 0 41 0;
#X connect 17 0 18 0;
#X connect 18 0 13 1;
#X connect 19 0 6 0;
#X connect 19 1 6 1;
#X connect 20 0 35 0;
#X connect 21 0 14 0;
#X connect 22 0 23 0;
#X connect 23 0 11 0;
#X connect 24 0 25 0;
#X connect 25 0 17 0;
#X connect 26 0 28 0;
#X connect 27 0 4 0;
#X connect 28 0 6 0;
#X connect 35 0 0 0;
#X connect 35 0 22 0;
#X connect 35 0 21 0;
#X connect 36 0 9 0;
#X connect 39 0 7 0;
#X connect 39 0 2 0;
#X connect 41 0 18 1;
#X connect 44 0 12 1;
#X connect 45 0 39 0;
#X connect 46 0 47 0;
#X connect 47 0 27 0;
#X connect 48 0 49 0;
#X connect 49 0 36 0;
#X restore 341 401 pd transposeR;
#X msg 326 88 \; pd dsp 1 \; r_START \; transposeR 1 \; transposeL
1 \; delayL 0 \; delayR 0 \; window 0 \;;
#X obj 216 410 *~;
#X obj 144 407 *~;
#X obj 299 373 line~;
#X obj 111 364 line~;
#X obj -30 298 r feedbackvolL;
#X obj 395 347 r feedbackvolR;
#X floatatom 0 168 5 0 0 0 - - -;
#X obj 177 302 int;
#X msg 28 102 vibrato 3000 5;
#X floatatom 29 265 5 0 0 0 - - -;
#X obj 228 433 *~;
#X obj 156 430 *~;
#X obj 387 376 r feedbackvolR2;
#X obj -33 396 line~;
#X obj 433 403 line~;
#X obj -30 366 r feedbackvolL2;
#X obj 238 458 *~;
#X obj 166 455 *~;
#X obj -25 470 line~;
#X obj -22 440 r feedbackvolL3;
#X obj 391 461 line~;
#X obj 345 434 r feedbackvolR3;
#X obj 261 508 *~;
#X obj 414 511 line~;
#X obj 368 484 r feedbackvolR4;
#X obj 166 510 *~;
#X obj -25 525 line~;
#X obj -22 495 r feedbackvolL4;
#X msg 68 125 amp-range 60 70;
#X obj 283 552 rvu~;
#X obj 283 586 s rmsvu;
#X obj -20 77 readsf~;
#X msg -20 19 open timelapse.wav;
#X obj 42 71 delay 4000;
#X msg 0 46 1;
#X msg 29 47 0;
#X obj 114 17 r recdur;
#X obj 114 44 + 10000;
#X obj 232 83 delay;
#N canvas 383 229 450 300 record 0;
#X obj 130 164 writesf~;
#X msg 147 112 start;
#X msg 157 137 stop;
#X obj 103 49 * 1000;
#X floatatom 102 14 5 0 0 0 - - -;
#X obj 85 121 delay;
#X obj 105 223 s recdur;
#X msg 79 94 bang;
#X msg 129 71 open test1.wav;
#X obj 218 17 inlet~;
#X obj 274 16 inlet~;
#X connect 1 0 0 0;
#X connect 2 0 0 0;
#X connect 3 0 5 1;
#X connect 3 0 6 0;
#X connect 4 0 3 0;
#X connect 5 0 2 0;
#X connect 7 0 1 0;
#X connect 7 0 5 0;
#X connect 8 0 0 0;
#X connect 9 0 0 0;
#X connect 10 0 0 0;
#X restore 152 606 pd record;
#X obj 96 153 adc~ 1 2;
#X connect 0 0 25 0;
#X connect 0 1 24 0;
#X connect 1 0 16 0;
#X connect 1 0 16 1;
#X connect 1 0 0 0;
#X connect 1 0 0 1;
#X connect 1 0 49 0;
#X connect 1 0 46 0;
#X connect 2 0 4 0;
#X connect 2 1 3 0;
#X connect 3 0 1 1;
#X connect 3 0 0 2;
#X connect 4 0 31 0;
#X connect 6 2 2 0;
#X connect 6 4 7 0;
#X connect 7 0 8 0;
#X connect 7 1 9 0;
#X connect 7 2 10 0;
#X connect 7 3 11 0;
#X connect 8 0 12 0;
#X connect 9 0 13 0;
#X connect 10 0 14 0;
#X connect 11 0 15 0;
#X connect 12 0 1 5;
#X connect 13 0 1 2;
#X connect 14 0 1 3;
#X connect 15 0 1 4;
#X connect 16 0 41 0;
#X connect 16 1 40 0;
#X connect 17 0 23 0;
#X connect 18 0 17 0;
#X connect 18 0 32 0;
#X connect 18 0 52 0;
#X connect 18 0 57 0;
#X connect 18 0 56 0;
#X connect 18 0 62 0;
#X connect 21 0 35 0;
#X connect 21 1 35 0;
#X connect 22 0 34 0;
#X connect 22 1 34 0;
#X connect 24 0 20 0;
#X connect 24 0 53 0;
#X connect 24 0 63 1;
#X connect 25 0 19 0;
#X connect 25 0 53 0;
#X connect 25 0 63 0;
#X connect 26 0 24 1;
#X connect 27 0 25 1;
#X connect 28 0 33 0;
#X connect 28 0 27 0;
#X connect 29 0 26 0;
#X connect 31 0 30 0;
#X connect 31 0 1 0;
#X connect 32 0 6 0;
#X connect 34 0 20 0;
#X connect 34 0 53 0;
#X connect 34 0 63 1;
#X connect 35 0 19 0;
#X connect 35 0 53 0;
#X connect 35 0 63 0;
#X connect 36 0 38 0;
#X connect 37 0 35 1;
#X connect 38 0 34 1;
#X connect 39 0 37 0;
#X connect 40 0 20 0;
#X connect 40 0 53 0;
#X connect 40 0 63 1;
#X connect 41 0 19 0;
#X connect 41 0 53 0;
#X connect 41 0 63 0;
#X connect 42 0 41 1;
#X connect 43 0 42 0;
#X connect 44 0 40 1;
#X connect 45 0 44 0;
#X connect 46 0 20 0;
#X connect 46 0 53 0;
#X connect 46 0 63 1;
#X connect 47 0 46 1;
#X connect 48 0 47 0;
#X connect 49 0 19 0;
#X connect 49 0 53 0;
#X connect 49 0 63 0;
#X connect 50 0 49 1;
#X connect 51 0 50 0;
#X connect 52 0 6 0;
#X connect 53 0 54 0;
#X connect 55 0 0 0;
#X connect 55 0 0 1;
#X connect 55 0 1 6;
#X connect 55 0 16 0;
#X connect 55 0 16 1;
#X connect 55 0 6 0;
#X connect 56 0 55 0;
#X connect 57 0 58 0;
#X connect 58 0 55 0;
#X connect 59 0 55 0;
#X connect 60 0 61 0;
#X connect 61 0 62 1;
#X connect 62 0 59 0;
#X connect 64 0 6 0;
#X connect 64 0 0 0;
#X connect 64 0 16 0;
#X connect 64 0 1 6;
#X connect 64 1 6 0;
#X connect 64 1 0 1;
#X connect 64 1 16 1;
#X connect 64 1 1 6;
#X restore 313 38 pd core_components;
#X obj -40 39 bng 30 250 50 0 begin empty START -9 -9 0 20 -128992
-257985 -191407;
#X obj 92 90 vsl 20 150 0 100 0 0 r_oscline1 r_oscramp1 Oscillator_1
-30 -11 0 10 -162280 -257985 -1 0 1;
#X obj -9 140 vsl 20 150 0 1 0 0 r_ampline1 empty Master_Amplitude
-30 -11 0 10 -162280 -257985 -1 0 1;
#X obj 172 92 vsl 20 150 0 100 0 0 r_sawline1 r_sawramp1 Sawtooth_1
-30 -11 0 10 -162280 -257985 -1 0 1;
#X obj 251 90 vsl 20 150 0 100 0 0 r_oscline2 r_oscramp2 Oscillator_2
-30 -11 0 10 -162280 -257985 -1 0 1;
#X obj 337 90 vsl 20 150 0 100 0 0 r_sawline2 r_sawramp2 Sawtooth_2
-30 -11 0 10 -162280 -257985 -1 0 1;
#X obj 402 90 vsl 20 150 0 100 0 0 r_cosline1 r_cosramp1 Cosine_1 -20
-11 0 10 -162280 -257985 -1 0 1;
#X obj 467 89 vsl 20 150 0 100 0 0 r_noiseline1 r_noiseramp1 Noise_1
-15 -11 0 10 -162280 -257985 -1 0 1;
#X obj 531 89 vsl 20 150 0 100 0 0 r_pinkline1 r_pinkramp1 Pink_1 -13
-11 0 10 -162280 -257985 -1 0 1;
#X obj 603 92 vsl 20 150 0 100 0 0 r_cosline2 r_cosramp2 Cosine_2 -20
-11 0 10 -162280 -257985 -1 0 1;
#X text 692 5 Finish;
#N canvas 908 454 355 166 ramps 0;
#X obj 66 41 inlet;
#X obj 100 41 inlet;
#X obj 135 42 inlet;
#X obj 170 42 inlet;
#X obj 207 42 inlet;
#X obj 241 42 inlet;
#X obj 276 43 inlet;
#X obj 311 43 inlet;
#N canvas 916 124 207 176 ramp 0;
#X obj 62 91 line;
#X floatatom 140 87 5 0 0 0 - - -;
#X msg 22 32 0;
#X msg 83 49 0 3000;
#X obj 32 -2 inlet;
#X obj 142 8 inlet;
#X msg 64 20 70 3000;
#X obj 63 115 s r_oscramp1;
#X connect 0 0 1 0;
#X connect 0 0 7 0;
#X connect 2 0 0 0;
#X connect 3 0 0 0;
#X connect 4 0 6 0;
#X connect 5 0 3 0;
#X connect 6 0 0 0;
#X restore 68 85 pd ramp;
#N canvas 916 124 207 176 ramp 0;
#X obj 62 91 line;
#X floatatom 140 87 5 0 0 0 - - -;
#X msg 22 32 0;
#X msg 85 39 0 3000;
#X obj 32 -2 inlet;
#X obj 73 -2 inlet;
#X msg 64 20 70 3000;
#X obj 63 115 s r_sawramp1;
#X connect 0 0 1 0;
#X connect 0 0 7 0;
#X connect 2 0 0 0;
#X connect 3 0 0 0;
#X connect 4 0 6 0;
#X connect 5 0 3 0;
#X connect 6 0 0 0;
#X restore 136 85 pd ramp;
#N canvas 916 124 207 176 ramp 0;
#X obj 62 91 line;
#X floatatom 140 87 5 0 0 0 - - -;
#X msg 22 32 0;
#X msg 85 39 0 3000;
#X obj 32 -2 inlet;
#X obj 73 -2 inlet;
#X msg 64 20 70 3000;
#X obj 63 115 s r_oscramp2;
#X connect 0 0 1 0;
#X connect 0 0 7 0;
#X connect 2 0 0 0;
#X connect 3 0 0 0;
#X connect 4 0 6 0;
#X connect 5 0 3 0;
#X connect 6 0 0 0;
#X restore 208 86 pd ramp;
#N canvas 916 124 207 176 ramp 0;
#X obj 62 91 line;
#X floatatom 140 87 5 0 0 0 - - -;
#X msg 22 32 0;
#X msg 85 39 0 3000;
#X obj 32 -2 inlet;
#X obj 73 -2 inlet;
#X msg 64 20 70 3000;
#X obj 63 115 s r_sawramp2;
#X connect 0 0 1 0;
#X connect 0 0 7 0;
#X connect 2 0 0 0;
#X connect 3 0 0 0;
#X connect 4 0 6 0;
#X connect 5 0 3 0;
#X connect 6 0 0 0;
#X restore 276 86 pd ramp;
#X obj 54 130 bng 15 250 50 0 empty empty empty 17 7 0 10 -262144 -1
-1;
#X connect 0 0 8 0;
#X connect 1 0 8 1;
#X connect 1 0 12 0;
#X connect 2 0 9 0;
#X connect 3 0 9 1;
#X connect 4 0 10 0;
#X connect 5 0 10 1;
#X connect 6 0 11 0;
#X connect 7 0 11 1;
#X restore 154 419 pd ramps;
#N canvas 905 435 375 171 ramps 0;
#X obj 66 41 inlet;
#X obj 100 41 inlet;
#X obj 135 42 inlet;
#X obj 170 42 inlet;
#X obj 205 43 inlet;
#X obj 239 43 inlet;
#X obj 274 44 inlet;
#X obj 309 44 inlet;
#N canvas 916 124 207 176 ramp 0;
#X obj 62 91 line;
#X floatatom 140 87 5 0 0 0 - - -;
#X msg 22 32 0;
#X msg 85 39 0 3000;
#X obj 32 -2 inlet;
#X obj 73 -2 inlet;
#X msg 64 20 70 3000;
#X obj 63 114 s r_cosramp1;
#X connect 0 0 1 0;
#X connect 0 0 7 0;
#X connect 2 0 0 0;
#X connect 3 0 0 0;
#X connect 4 0 6 0;
#X connect 5 0 3 0;
#X connect 6 0 0 0;
#X restore 68 85 pd ramp;
#N canvas 916 124 207 176 ramp 0;
#X obj 62 91 line;
#X floatatom 140 87 5 0 0 0 - - -;
#X msg 22 32 0;
#X msg 85 39 0 3000;
#X obj 32 -2 inlet;
#X obj 73 -2 inlet;
#X msg 64 20 70 3000;
#X obj 62 114 s r_noiseramp1;
#X connect 0 0 1 0;
#X connect 0 0 7 0;
#X connect 2 0 0 0;
#X connect 3 0 0 0;
#X connect 4 0 6 0;
#X connect 5 0 3 0;
#X connect 6 0 0 0;
#X restore 136 85 pd ramp;
#N canvas 916 124 207 176 ramp 0;
#X obj 62 91 line;
#X floatatom 140 87 5 0 0 0 - - -;
#X msg 22 32 0;
#X msg 85 39 0 3000;
#X obj 32 -2 inlet;
#X obj 73 -2 inlet;
#X msg 64 20 70 3000;
#X obj 63 115 s r_pinkramp1;
#X connect 0 0 1 0;
#X connect 0 0 7 0;
#X connect 2 0 0 0;
#X connect 3 0 0 0;
#X connect 4 0 6 0;
#X connect 5 0 3 0;
#X connect 6 0 0 0;
#X restore 206 87 pd ramp;
#N canvas 916 124 207 176 ramp 0;
#X obj 62 91 line;
#X floatatom 140 87 5 0 0 0 - - -;
#X msg 22 32 0;
#X msg 85 39 0 3000;
#X obj 32 -2 inlet;
#X obj 73 -2 inlet;
#X msg 64 20 70 3000;
#X obj 63 115 s r_cosramp2;
#X connect 0 0 1 0;
#X connect 0 0 7 0;
#X connect 2 0 0 0;
#X connect 3 0 0 0;
#X connect 4 0 6 0;
#X connect 5 0 3 0;
#X connect 6 0 0 0;
#X restore 274 87 pd ramp;
#X connect 0 0 8 0;
#X connect 1 0 8 1;
#X connect 2 0 9 0;
#X connect 3 0 9 1;
#X connect 4 0 10 0;
#X connect 5 0 10 1;
#X connect 6 0 11 0;
#X connect 7 0 11 1;
#X restore 438 420 pd ramps;
#X obj 17 320 bng 20 250 50 0 empty empty ramp_up 22 7 0 12 -262144
-1 -258113;
#X obj 35 345 bng 20 250 50 0 empty empty ramp_down 22 7 0 12 -262144
-1 -258113;
#X obj 106 319 bng 20 250 50 0 empty empty ramp_up 22 7 0 12 -262144
-1 -258113;
#X obj 124 345 bng 20 250 50 0 empty empty ramp_down 22 7 0 12 -262144
-1 -258113;
#X obj 193 319 bng 20 250 50 0 empty empty ramp_up 22 7 0 12 -262144
-1 -258113;
#X obj 211 345 bng 20 250 50 0 empty empty ramp_down 22 7 0 12 -262144
-1 -258113;
#X obj 281 319 bng 20 250 50 0 empty empty ramp_up 22 7 0 12 -262144
-1 -258113;
#X obj 299 345 bng 20 250 50 0 empty empty ramp_down 22 7 0 12 -262144
-1 -258113;
#X obj 370 318 bng 20 250 50 0 empty empty ramp_up 22 7 0 12 -262144
-1 -258113;
#X obj 388 344 bng 20 250 50 0 empty empty ramp_down 22 7 0 12 -262144
-1 -258113;
#X obj 459 318 bng 20 250 50 0 empty empty ramp_up 22 7 0 12 -262144
-1 -258113;
#X obj 477 344 bng 20 250 50 0 empty empty ramp_down 22 7 0 12 -262144
-1 -258113;
#X obj 546 318 bng 20 250 50 0 empty empty ramp_up 22 7 0 12 -262144
-1 -258113;
#X obj 564 344 bng 20 250 50 0 empty empty ramp_down 22 7 0 12 -262144
-1 -258113;
#X obj 634 318 bng 20 250 50 0 empty empty ramp_up 22 7 0 12 -262144
-1 -258113;
#X obj 652 344 bng 20 250 50 0 empty empty ramp_down 22 7 0 12 -262144
-1 -258113;
#X obj 457 466 nbx 20 25 -11 11 0 0 transposeR empty Right_Transpose
0 -8 0 10 -262144 -1 -1 0 256;
#X obj 95 466 nbx 20 25 -11 11 0 0 transposeL empty Left_Transpose
0 -8 0 10 -262144 -1 -1 0 256;
#X obj 459 545 nbx 20 25 1 5000 0 0 delayR empty Right_Delay 0 -8 0
10 -262144 -1 -1 1 256;
#X obj 96 546 nbx 20 25 1 5000 0 0 delayL empty Left_Delay 0 -8 0 10
-262144 -1 -1 1 256;
#X msg 681 23 \; pd dsp 0 \; r_START \; transposeR 0 \; transposeL
0 \; delayL 0 \; delayR 0 \; window 0 \;;
#X obj -42 453 vsl 15 128 0 1 0 0 feedbackvolL empty Clean_Delay 0
-9 0 10 -262144 -1 -1 0 1;
#X obj 43 454 vsl 15 128 0 1 0 0 feedbackvolR empty empty 0 -9 0 10
-262144 -1 -1 0 1;
#X obj 660 444 vsl 15 128 0 1 0 0 feedbackvolL2 empty Transp_Delay
0 -9 0 10 -262144 -1 -1 0 1;
#X obj 745 445 vsl 15 128 0 1 0 0 feedbackvolR2 empty empty 0 -9 0
10 -262144 -1 -1 0 1;
#X obj 314 452 vsl 15 128 0 1 0 0 feedbackvolL3 empty Clean_Verb 0
-9 0 10 -262144 -1 -1 0 1;
#X obj 399 453 vsl 15 128 0 1 0 0 feedbackvolR3 empty empty 0 -9 0
10 -262144 -1 -1 0 1;
#X obj 313 613 vsl 15 128 0 1 0 0 feedbackvolL4 empty Synth_Vol 0 -9
0 10 -262144 -1 -1 0 1;
#X obj 398 614 vsl 15 128 0 1 0 0 feedbackvolR4 empty empty 0 -9 0
10 -262144 -1 -1 0 1;
#X obj 683 149 vu 15 120 rmsvu empty -1 -8 0 10 -66577 -1 1 0;
#X obj 122 638 tgl 15 0 tonosc1 empty empty 17 7 0 10 -262144 -1 -1
0 1;
#X obj 138 638 tgl 15 0 tonsaw1 empty empty 17 7 0 10 -262144 -1 -1
0 1;
#X obj 154 638 tgl 15 0 tonosc2 empty empty 17 7 0 10 -262144 -1 -1
0 1;
#X obj 170 638 tgl 15 0 tonsaw2 empty empty 17 7 0 10 -262144 -1 -1
0 1;
#X obj 186 638 tgl 15 0 toncos1 empty empty 17 7 0 10 -262144 -1 -1
0 1;
#X obj 202 638 tgl 15 0 tonbp1 empty empty 17 7 0 10 -262144 -1 -1
0 1;
#X obj 218 638 tgl 15 0 tonbp2 empty empty 17 7 0 10 -262144 -1 -1
0 1;
#X obj 234 638 tgl 15 0 toncos2 empty empty 17 7 0 10 -262144 -1 -1
0 1;
#X obj 122 654 tgl 15 0 h1osc1 empty empty 17 7 0 10 -262144 -1 -1
0 1;
#X obj 138 654 tgl 15 0 h1saw1 empty empty 17 7 0 10 -262144 -1 -1
0 1;
#X obj 154 654 tgl 15 0 h1osc2 empty empty 17 7 0 10 -262144 -1 -1
0 1;
#X obj 170 654 tgl 15 0 h1saw2 empty empty 17 7 0 10 -262144 -1 -1
0 1;
#X obj 186 654 tgl 15 0 h1cos1 empty empty 17 7 0 10 -262144 -1 -1
0 1;
#X obj 202 654 tgl 15 0 h1bp1 empty empty 17 7 0 10 -262144 -1 -1 0
1;
#X obj 218 654 tgl 15 0 h1bp2 empty empty 17 7 0 10 -262144 -1 -1 0
1;
#X obj 234 654 tgl 15 0 h1cos2 empty empty 17 7 0 10 -262144 -1 -1
0 1;
#X text 85 636 tonic;
#X text 62 652 harmonic1;
#X text 61 702 harmonic4;
#X text 61 686 harmonic3;
#X text 61 669 harmonic2;
#X obj 122 670 tgl 15 0 h2osc1 empty empty 17 7 0 10 -262144 -1 -1
0 1;
#X obj 138 670 tgl 15 0 h2saw1 empty empty 17 7 0 10 -262144 -1 -1
0 1;
#X obj 154 670 tgl 15 0 h2osc2 empty empty 17 7 0 10 -262144 -1 -1
0 1;
#X obj 170 670 tgl 15 0 h2saw2 empty empty 17 7 0 10 -262144 -1 -1
0 1;
#X obj 186 670 tgl 15 0 h2cos1 empty empty 17 7 0 10 -262144 -1 -1
0 1;
#X obj 202 670 tgl 15 0 h2bp1 empty empty 17 7 0 10 -262144 -1 -1 0
1;
#X obj 218 670 tgl 15 0 h2bp2 empty empty 17 7 0 10 -262144 -1 -1 0
1;
#X obj 234 670 tgl 15 0 h2cos2 empty empty 17 7 0 10 -262144 -1 -1
0 1;
#X obj 122 686 tgl 15 0 h3osc1 empty empty 17 7 0 10 -262144 -1 -1
0 1;
#X obj 138 686 tgl 15 0 h3saw1 empty empty 17 7 0 10 -262144 -1 -1
0 1;
#X obj 154 686 tgl 15 0 h3osc2 empty empty 17 7 0 10 -262144 -1 -1
0 1;
#X obj 170 686 tgl 15 0 h3saw2 empty empty 17 7 0 10 -262144 -1 -1
0 1;
#X obj 186 686 tgl 15 0 h3cos1 empty empty 17 7 0 10 -262144 -1 -1
0 1;
#X obj 202 686 tgl 15 0 h3bp1 empty empty 17 7 0 10 -262144 -1 -1 0
1;
#X obj 218 686 tgl 15 0 h3bp2 empty empty 17 7 0 10 -262144 -1 -1 0
1;
#X obj 234 686 tgl 15 0 h3cos2 empty empty 17 7 0 10 -262144 -1 -1
0 1;
#X obj 122 702 tgl 15 0 h4osc1 empty empty 17 7 0 10 -262144 -1 -1
0 1;
#X obj 138 702 tgl 15 0 h4saw1 empty empty 17 7 0 10 -262144 -1 -1
0 1;
#X obj 154 702 tgl 15 0 h4osc2 empty empty 17 7 0 10 -262144 -1 -1
0 1;
#X obj 170 702 tgl 15 0 h4saw2 empty empty 17 7 0 10 -262144 -1 -1
0 1;
#X obj 186 702 tgl 15 0 h4cos1 empty empty 17 7 0 10 -262144 -1 -1
0 1;
#X obj 202 702 tgl 15 0 h4bp1 empty empty 17 7 0 10 -262144 -1 -1 0
1;
#X obj 218 702 tgl 15 0 h4bp2 empty empty 17 7 0 10 -262144 -1 -1 0
1;
#X obj 234 702 tgl 15 0 h4cos2 empty empty 17 7 0 10 -262144 -1 -1
0 1;
#X text 124 618 1;
#X text 141 618 2;
#X text 160 619 3;
#X text 175 619 4;
#X text 192 619 5;
#X text 207 618 6;
#X text 221 617 7;
#X text 238 617 8;
#X obj 496 613 Scope~ 130 130 256 3 128 -1 1 0 0 0 0 102 255 51 135
135 135 0;
#X obj 494 591 r~ synthscope;
#X obj 202 260 bng 15 250 50 0 ps1 empty Preset1 17 7 0 10 -262144
-1 -1;
#X msg 213 282 0.5;
#X obj 123 580 bng 15 250 50 0 empty ps1 empty 17 7 0 10 -262144 -1
-1;
#X obj 110 256 bng 15 250 50 0 ps1 empty reset 17 7 0 10 -262144 -1
-1;
#X msg 122 283 0;
#X obj 315 256 bng 15 250 50 0 ps2 empty Preset2 17 7 0 10 -262144
-1 -1;
#X msg 326 278 0.75;
#X obj 176 580 bng 15 250 50 0 empty ps2 empty 17 7 0 10 -262144 -1
-1;
#X connect 15 0 13 0;
#X connect 16 0 13 1;
#X connect 17 0 13 2;
#X connect 18 0 13 3;
#X connect 19 0 13 4;
#X connect 20 0 13 5;
#X connect 21 0 13 6;
#X connect 22 0 13 7;
#X connect 23 0 14 0;
#X connect 24 0 14 1;
#X connect 25 0 14 2;
#X connect 26 0 14 3;
#X connect 27 0 14 4;
#X connect 28 0 14 5;
#X connect 29 0 14 6;
#X connect 30 0 14 7;
#X connect 99 0 98 0;
#X connect 100 0 101 0;
#X connect 100 0 15 0;
#X connect 100 0 17 0;
#X connect 100 0 19 0;
#X connect 100 0 25 0;
#X connect 101 0 4 0;
#X connect 102 0 82 0;
#X connect 102 0 84 0;
#X connect 102 0 46 0;
#X connect 102 0 50 0;
#X connect 103 0 16 0;
#X connect 103 0 18 0;
#X connect 103 0 20 0;
#X connect 103 0 22 0;
#X connect 103 0 24 0;
#X connect 103 0 26 0;
#X connect 103 0 28 0;
#X connect 103 0 30 0;
#X connect 103 0 104 0;
#X connect 104 0 4 0;
#X connect 105 0 106 0;
#X connect 105 0 15 0;
#X connect 105 0 17 0;
#X connect 105 0 19 0;
#X connect 105 0 25 0;
#X connect 105 0 29 0;
#X connect 106 0 4 0;
#X connect 107 0 54 0;
#X connect 107 0 52 0;
#X connect 107 0 82 0;
#X connect 107 0 83 0;
#X connect 107 0 47 0;
